<?xml version="1.0" encoding="UTF-8" standalone="no"?>
<!DOCTYPE svg PUBLIC "-//W3C//DTD SVG 1.1//EN" "http://www.w3.org/Graphics/SVG/1.1/DTD/svg11.dtd">
<svg width="100%" height="100%" viewBox="0 0 620 230" version="1.1" xmlns="http://www.w3.org/2000/svg" xmlns:xlink="http://www.w3.org/1999/xlink" xml:space="preserve" xmlns:serif="http://www.serif.com/" style="fill-rule:evenodd;clip-rule:evenodd;stroke-linejoin:round;stroke-miterlimit:2;">
    <g transform="matrix(1,0,0,1,-615.5,-243)">
        <g transform="matrix(288,0,0,288,517.548,457.548)">
            <path d="M0.452,-0.635L0.452,-0.062L0.515,-0.062L0.515,-0.032C0.515,-0.023 0.512,-0.015 0.505,-0.009C0.498,-0.002 0.49,0.001 0.481,0.001L0.452,0.001L0.452,0.003L0.421,0.003C0.411,0.003 0.403,-0.001 0.396,-0.008C0.389,-0.015 0.385,-0.023 0.385,-0.032L0.385,-0.665C0.385,-0.674 0.388,-0.682 0.395,-0.689C0.401,-0.695 0.409,-0.698 0.418,-0.698L0.481,-0.698C0.49,-0.698 0.498,-0.695 0.505,-0.689C0.512,-0.682 0.515,-0.674 0.515,-0.665L0.515,-0.635L0.452,-0.635Z" style="fill:white;fill-rule:nonzero;stroke:white;stroke-width:0.03px;"/>
        </g>
        <g transform="matrix(288,0,0,288,607.404,457.548)">
            <path d="M0.35,-0.7C0.359,-0.7 0.368,-0.698 0.376,-0.695C0.383,-0.691 0.39,-0.686 0.397,-0.68C0.398,-0.679 0.447,-0.63 0.469,-0.609C0.49,-0.587 0.52,-0.556 0.559,-0.516L0.544,-0.5C0.537,-0.493 0.528,-0.489 0.519,-0.489C0.509,-0.489 0.5,-0.493 0.493,-0.5L0.297,-0.7L0.35,-0.7ZM0.647,-0L0.647,-0.34L0.638,-0.35L0.959,-0.679C0.973,-0.693 0.989,-0.7 1.006,-0.7L1.06,-0.7L0.709,-0.34L0.709,-0.03C0.709,-0.022 0.706,-0.015 0.701,-0.009C0.695,-0.003 0.688,-0 0.681,-0L0.647,-0Z" style="fill:white;fill-rule:nonzero;stroke:white;stroke-width:0.03px;"/>
        </g>
        <g transform="matrix(288,0,0,288,851.916,457.548)">
            <path d="M1.041,-0.19C1.041,-0.165 1.037,-0.142 1.028,-0.12C1.018,-0.098 1.006,-0.079 0.991,-0.062C0.976,-0.045 0.957,-0.031 0.936,-0.02C0.915,-0.009 0.892,-0.002 0.868,-0L0.319,-0L0.319,-0.03C0.319,-0.039 0.322,-0.047 0.329,-0.054C0.335,-0.06 0.343,-0.063 0.352,-0.063L0.857,-0.063C0.873,-0.064 0.888,-0.067 0.903,-0.074C0.918,-0.081 0.931,-0.09 0.942,-0.102C0.953,-0.113 0.961,-0.127 0.968,-0.141C0.974,-0.157 0.977,-0.173 0.977,-0.19C0.977,-0.207 0.974,-0.224 0.967,-0.239C0.96,-0.255 0.951,-0.269 0.94,-0.28C0.929,-0.291 0.915,-0.3 0.9,-0.307C0.884,-0.314 0.867,-0.317 0.85,-0.317L0.826,-0.317C0.819,-0.317 0.807,-0.317 0.79,-0.318C0.773,-0.318 0.748,-0.318 0.713,-0.318L0.352,-0.318C0.343,-0.318 0.335,-0.321 0.329,-0.328C0.322,-0.335 0.319,-0.343 0.319,-0.352L0.319,-0.381L0.785,-0.381C0.793,-0.381 0.798,-0.381 0.801,-0.382C0.803,-0.382 0.806,-0.382 0.809,-0.382C0.826,-0.382 0.843,-0.385 0.859,-0.392C0.874,-0.399 0.888,-0.408 0.899,-0.42C0.91,-0.431 0.919,-0.445 0.926,-0.46C0.933,-0.475 0.936,-0.492 0.936,-0.509C0.936,-0.526 0.933,-0.543 0.926,-0.559C0.919,-0.574 0.91,-0.588 0.899,-0.599C0.888,-0.61 0.874,-0.619 0.859,-0.626C0.843,-0.633 0.826,-0.636 0.809,-0.636L0.352,-0.636C0.343,-0.636 0.335,-0.639 0.329,-0.646C0.322,-0.653 0.319,-0.661 0.319,-0.67L0.319,-0.7L0.809,-0.7C0.835,-0.7 0.86,-0.695 0.883,-0.685C0.906,-0.675 0.927,-0.661 0.944,-0.644C0.961,-0.627 0.975,-0.606 0.985,-0.583C0.995,-0.56 1,-0.535 1,-0.509C1,-0.465 0.986,-0.425 0.958,-0.39L0.937,-0.363L0.964,-0.343C0.988,-0.325 1.007,-0.303 1.02,-0.276C1.034,-0.249 1.041,-0.22 1.041,-0.19Z" style="fill:white;fill-rule:nonzero;stroke:white;stroke-width:0.03px;"/>
        </g>
        <g transform="matrix(288,0,0,288,1076.84,457.548)">
            <path d="M0.376,-0.635L0.376,-0.665C0.376,-0.674 0.379,-0.682 0.386,-0.689C0.392,-0.695 0.4,-0.698 0.409,-0.698L0.472,-0.698C0.481,-0.698 0.489,-0.695 0.496,-0.689C0.503,-0.682 0.506,-0.674 0.506,-0.665L0.506,-0.032C0.506,-0.023 0.502,-0.015 0.496,-0.008C0.489,-0.001 0.48,0.003 0.47,0.003L0.439,0.003L0.439,0.001L0.409,0.001C0.4,0.001 0.392,-0.002 0.386,-0.009C0.379,-0.015 0.376,-0.023 0.376,-0.032L0.376,-0.062L0.439,-0.062L0.439,-0.635L0.376,-0.635Z" style="fill:white;fill-rule:nonzero;stroke:white;stroke-width:0.03px;"/>
        </g>
    </g>
</svg>
